STARTFONT 2.1
COMMENT
COMMENT Converted from OpenType font "Context_Ultra_Condensed.ttf" by "otf2bdf 3.0".
COMMENT
FONT -FreeType-Context Ultra Condensed SSi-Medium-R-Normal--19-140-100-100-P-60-ISO10646-1
SIZE 14 100 100
FONTBOUNDINGBOX 22 22 -3 -4
STARTPROPERTIES 19
FOUNDRY "FreeType"
FAMILY_NAME "Context Ultra Condensed SSi"
WEIGHT_NAME "Medium"
SLANT "R"
SETWIDTH_NAME "Normal"
ADD_STYLE_NAME ""
PIXEL_SIZE 19
POINT_SIZE 140
RESOLUTION_X 100
RESOLUTION_Y 100
SPACING "P"
AVERAGE_WIDTH 60
CHARSET_REGISTRY "ISO10646"
CHARSET_ENCODING "1"
FONT_ASCENT 13
FONT_DESCENT 2
COPYRIGHT "Copyright c 1992 Southern Software, Inc. All Rights Reserved"
_OTF_FONTFILE "Context_Ultra_Condensed.ttf"
_OTF_PSNAME "ContextUltraCondensedSSiUltraCondensed"
ENDPROPERTIES
CHARS 230
STARTCHAR 0020
ENCODING 32
SWIDTH 154 0
DWIDTH 3 0
BBX 0 0 0 0
BITMAP
ENDCHAR
STARTCHAR 0021
ENCODING 33
SWIDTH 205 0
DWIDTH 4 0
BBX 2 14 1 0
BITMAP
C0
C0
C0
C0
C0
C0
C0
C0
C0
C0
C0
00
C0
C0
ENDCHAR
STARTCHAR 0022
ENCODING 34
SWIDTH 308 0
DWIDTH 6 0
BBX 5 5 1 9
BITMAP
D8
D8
D8
D8
D8
ENDCHAR
STARTCHAR 0023
ENCODING 35
SWIDTH 308 0
DWIDTH 6 0
BBX 8 14 -1 0
BITMAP
12
12
12
32
7F
7F
26
24
FF
FF
24
24
64
6C
ENDCHAR
STARTCHAR 0024
ENCODING 36
SWIDTH 308 0
DWIDTH 6 0
BBX 5 16 1 -1
BITMAP
20
70
F8
D8
D8
D8
E0
60
70
38
D8
D8
D8
F8
F0
20
ENDCHAR
STARTCHAR 0025
ENCODING 37
SWIDTH 514 0
DWIDTH 10 0
BBX 9 14 0 0
BITMAP
7300
F200
D200
D400
D400
D400
F780
7F80
0E80
0E80
1680
1680
1780
2380
ENDCHAR
STARTCHAR 0026
ENCODING 38
SWIDTH 411 0
DWIDTH 8 0
BBX 6 14 1 0
BITMAP
70
F8
D8
D8
D8
F0
E0
EC
FC
FC
DC
DC
FC
74
ENDCHAR
STARTCHAR 0027
ENCODING 39
SWIDTH 205 0
DWIDTH 4 0
BBX 2 5 1 9
BITMAP
C0
C0
C0
C0
C0
ENDCHAR
STARTCHAR 0028
ENCODING 40
SWIDTH 154 0
DWIDTH 3 0
BBX 4 16 0 -2
BITMAP
30
60
60
40
40
C0
C0
C0
C0
C0
C0
40
40
60
60
30
ENDCHAR
STARTCHAR 0029
ENCODING 41
SWIDTH 154 0
DWIDTH 3 0
BBX 3 16 0 -2
BITMAP
C0
C0
40
60
60
60
60
60
60
60
60
60
40
C0
C0
80
ENDCHAR
STARTCHAR 002A
ENCODING 42
SWIDTH 308 0
DWIDTH 6 0
BBX 6 5 0 9
BITMAP
10
5C
F8
30
48
ENDCHAR
STARTCHAR 002B
ENCODING 43
SWIDTH 514 0
DWIDTH 10 0
BBX 10 9 0 1
BITMAP
0C00
0C00
0C00
FFC0
FFC0
0C00
0C00
0C00
0C00
ENDCHAR
STARTCHAR 002C
ENCODING 44
SWIDTH 154 0
DWIDTH 3 0
BBX 3 5 0 -3
BITMAP
60
40
40
C0
C0
ENDCHAR
STARTCHAR 002D
ENCODING 45
SWIDTH 154 0
DWIDTH 3 0
BBX 3 2 0 5
BITMAP
E0
E0
ENDCHAR
STARTCHAR 002E
ENCODING 46
SWIDTH 154 0
DWIDTH 3 0
BBX 2 2 1 0
BITMAP
C0
C0
ENDCHAR
STARTCHAR 002F
ENCODING 47
SWIDTH 257 0
DWIDTH 5 0
BBX 6 14 0 0
BITMAP
0C
08
08
10
10
10
20
20
20
40
40
40
80
80
ENDCHAR
STARTCHAR 0030
ENCODING 48
SWIDTH 308 0
DWIDTH 6 0
BBX 5 14 1 0
BITMAP
F0
F8
D8
D8
D8
D8
D8
D8
D8
D8
D8
D8
F8
F0
ENDCHAR
STARTCHAR 0031
ENCODING 49
SWIDTH 308 0
DWIDTH 6 0
BBX 4 14 1 0
BITMAP
30
70
F0
70
70
70
70
70
70
70
70
70
70
70
ENDCHAR
STARTCHAR 0032
ENCODING 50
SWIDTH 308 0
DWIDTH 6 0
BBX 5 14 1 0
BITMAP
F0
F8
D8
D8
D8
18
30
30
60
E0
C0
C0
F8
F8
ENDCHAR
STARTCHAR 0033
ENCODING 51
SWIDTH 308 0
DWIDTH 6 0
BBX 5 14 1 0
BITMAP
F0
F8
D8
D8
D8
18
30
30
18
D8
D8
D8
F8
F0
ENDCHAR
STARTCHAR 0034
ENCODING 52
SWIDTH 308 0
DWIDTH 6 0
BBX 6 14 0 0
BITMAP
3C
3C
2C
2C
6C
6C
6C
4C
CC
FC
FC
0C
0C
0C
ENDCHAR
STARTCHAR 0035
ENCODING 53
SWIDTH 308 0
DWIDTH 6 0
BBX 5 14 1 0
BITMAP
F8
F8
C0
C0
C0
F0
F8
18
18
D8
D8
D8
F8
F0
ENDCHAR
STARTCHAR 0036
ENCODING 54
SWIDTH 308 0
DWIDTH 6 0
BBX 5 14 1 0
BITMAP
F0
F8
D8
D8
D8
F0
F8
D8
D8
D8
D8
D8
F8
F0
ENDCHAR
STARTCHAR 0037
ENCODING 55
SWIDTH 308 0
DWIDTH 6 0
BBX 6 14 0 0
BITMAP
FC
FC
0C
0C
18
18
18
18
30
30
30
30
60
60
ENDCHAR
STARTCHAR 0038
ENCODING 56
SWIDTH 308 0
DWIDTH 6 0
BBX 5 14 1 0
BITMAP
70
F8
D8
D8
D8
D8
F0
F0
D8
D8
D8
D8
F8
F0
ENDCHAR
STARTCHAR 0039
ENCODING 57
SWIDTH 308 0
DWIDTH 6 0
BBX 5 14 1 0
BITMAP
F0
F8
D8
D8
D8
D8
D8
F8
F8
18
D8
D8
F8
F0
ENDCHAR
STARTCHAR 003A
ENCODING 58
SWIDTH 154 0
DWIDTH 3 0
BBX 2 10 1 0
BITMAP
C0
C0
00
00
00
00
00
00
C0
C0
ENDCHAR
STARTCHAR 003B
ENCODING 59
SWIDTH 154 0
DWIDTH 3 0
BBX 3 13 0 -3
BITMAP
60
60
00
00
00
00
00
00
60
40
C0
C0
80
ENDCHAR
STARTCHAR 003C
ENCODING 60
SWIDTH 514 0
DWIDTH 10 0
BBX 8 9 1 1
BITMAP
01
07
3C
F0
C0
70
1C
07
01
ENDCHAR
STARTCHAR 003D
ENCODING 61
SWIDTH 514 0
DWIDTH 10 0
BBX 10 6 0 3
BITMAP
FFC0
FFC0
0000
0000
FFC0
FFC0
ENDCHAR
STARTCHAR 003E
ENCODING 62
SWIDTH 514 0
DWIDTH 10 0
BBX 8 9 1 0
BITMAP
80
F0
3C
07
07
1E
70
C0
80
ENDCHAR
STARTCHAR 003F
ENCODING 63
SWIDTH 308 0
DWIDTH 6 0
BBX 5 14 1 0
BITMAP
70
F8
D8
D8
D8
F0
30
60
60
60
60
00
60
60
ENDCHAR
STARTCHAR 0040
ENCODING 64
SWIDTH 822 0
DWIDTH 16 0
BBX 14 14 1 0
BITMAP
0FC0
1FF0
7838
6738
CFEC
DCCC
984C
98C8
D8D8
DFF0
6EE0
7838
1FE0
0FC0
ENDCHAR
STARTCHAR 0041
ENCODING 65
SWIDTH 308 0
DWIDTH 6 0
BBX 6 14 0 0
BITMAP
38
38
78
78
78
78
6C
6C
7C
7C
4C
CC
CC
CC
ENDCHAR
STARTCHAR 0042
ENCODING 66
SWIDTH 308 0
DWIDTH 6 0
BBX 5 14 1 0
BITMAP
F0
F8
D8
D8
D8
D8
F0
F0
D8
D8
D8
D8
F8
F0
ENDCHAR
STARTCHAR 0043
ENCODING 67
SWIDTH 308 0
DWIDTH 6 0
BBX 5 14 1 0
BITMAP
F0
F8
D8
D8
D8
C0
C0
C0
C0
D8
D8
D8
F8
F0
ENDCHAR
STARTCHAR 0044
ENCODING 68
SWIDTH 308 0
DWIDTH 6 0
BBX 5 14 1 0
BITMAP
F0
F8
D8
D8
D8
D8
D8
D8
D8
D8
D8
D8
F8
F0
ENDCHAR
STARTCHAR 0045
ENCODING 69
SWIDTH 257 0
DWIDTH 5 0
BBX 4 14 1 0
BITMAP
F0
F0
C0
C0
C0
F0
F0
C0
C0
C0
C0
C0
F0
F0
ENDCHAR
STARTCHAR 0046
ENCODING 70
SWIDTH 257 0
DWIDTH 5 0
BBX 4 14 1 0
BITMAP
F0
F0
C0
C0
C0
F0
F0
C0
C0
C0
C0
C0
C0
C0
ENDCHAR
STARTCHAR 0047
ENCODING 71
SWIDTH 308 0
DWIDTH 6 0
BBX 5 14 1 0
BITMAP
F0
F8
D8
D8
D8
C0
C0
F8
F8
D8
D8
D8
F8
E8
ENDCHAR
STARTCHAR 0048
ENCODING 72
SWIDTH 308 0
DWIDTH 6 0
BBX 5 14 1 0
BITMAP
D8
D8
D8
D8
D8
F8
F8
D8
D8
D8
D8
D8
D8
D8
ENDCHAR
STARTCHAR 0049
ENCODING 73
SWIDTH 154 0
DWIDTH 3 0
BBX 2 14 1 0
BITMAP
C0
C0
C0
C0
C0
C0
C0
C0
C0
C0
C0
C0
C0
C0
ENDCHAR
STARTCHAR 004A
ENCODING 74
SWIDTH 308 0
DWIDTH 6 0
BBX 5 14 1 0
BITMAP
18
18
18
18
18
18
18
18
18
D8
D8
D8
D8
70
ENDCHAR
STARTCHAR 004B
ENCODING 75
SWIDTH 308 0
DWIDTH 6 0
BBX 5 14 1 0
BITMAP
D8
D8
D8
F0
F0
F0
F0
F0
F0
F0
F8
D8
D8
D8
ENDCHAR
STARTCHAR 004C
ENCODING 76
SWIDTH 257 0
DWIDTH 5 0
BBX 4 14 1 0
BITMAP
C0
C0
C0
C0
C0
C0
C0
C0
C0
C0
C0
C0
F0
F0
ENDCHAR
STARTCHAR 004D
ENCODING 77
SWIDTH 462 0
DWIDTH 9 0
BBX 8 14 1 0
BITMAP
E7
EF
EF
AF
AF
EF
FB
FB
FB
FB
FB
FB
DB
DB
ENDCHAR
STARTCHAR 004E
ENCODING 78
SWIDTH 411 0
DWIDTH 8 0
BBX 6 14 1 0
BITMAP
EC
EC
EC
EC
AC
BC
BC
BC
BC
BC
BC
9C
9C
9C
ENDCHAR
STARTCHAR 004F
ENCODING 79
SWIDTH 308 0
DWIDTH 6 0
BBX 5 14 1 0
BITMAP
F0
F8
D8
D8
D8
D8
D8
D8
D8
D8
D8
D8
F8
F0
ENDCHAR
STARTCHAR 0050
ENCODING 80
SWIDTH 308 0
DWIDTH 6 0
BBX 5 14 1 0
BITMAP
F0
F8
D8
D8
D8
D8
D8
F8
E0
C0
C0
C0
C0
C0
ENDCHAR
STARTCHAR 0051
ENCODING 81
SWIDTH 308 0
DWIDTH 6 0
BBX 5 16 1 -2
BITMAP
F0
F8
D8
D8
D8
D8
D8
D8
D8
D8
D8
D8
F8
F0
18
18
ENDCHAR
STARTCHAR 0052
ENCODING 82
SWIDTH 308 0
DWIDTH 6 0
BBX 5 14 1 0
BITMAP
F0
F8
D8
D8
D8
D8
F0
F8
D8
D8
D8
D8
D8
D8
ENDCHAR
STARTCHAR 0053
ENCODING 83
SWIDTH 308 0
DWIDTH 6 0
BBX 5 14 1 0
BITMAP
F0
F8
D8
D8
D8
C0
60
30
F8
D8
D8
D8
F8
F0
ENDCHAR
STARTCHAR 0054
ENCODING 84
SWIDTH 308 0
DWIDTH 6 0
BBX 6 14 0 0
BITMAP
FC
FC
30
30
30
30
30
30
30
30
30
30
30
30
ENDCHAR
STARTCHAR 0055
ENCODING 85
SWIDTH 308 0
DWIDTH 6 0
BBX 5 14 1 0
BITMAP
D8
D8
D8
D8
D8
D8
D8
D8
D8
D8
D8
D8
F8
F0
ENDCHAR
STARTCHAR 0056
ENCODING 86
SWIDTH 308 0
DWIDTH 6 0
BBX 6 14 0 0
BITMAP
CC
CC
CC
EC
6C
6C
6C
6C
68
78
78
78
78
38
ENDCHAR
STARTCHAR 0057
ENCODING 87
SWIDTH 462 0
DWIDTH 9 0
BBX 9 14 0 0
BITMAP
CD80
CD80
DD80
7D80
7D80
7D80
7D00
7F00
7700
7700
7700
7700
7700
7700
ENDCHAR
STARTCHAR 0058
ENCODING 88
SWIDTH 308 0
DWIDTH 6 0
BBX 6 14 0 0
BITMAP
CC
6C
6C
6C
78
78
38
38
78
78
6C
6C
CC
CC
ENDCHAR
STARTCHAR 0059
ENCODING 89
SWIDTH 308 0
DWIDTH 6 0
BBX 6 14 0 0
BITMAP
CC
EC
6C
6C
78
78
38
38
30
30
30
30
30
30
ENDCHAR
STARTCHAR 005A
ENCODING 90
SWIDTH 257 0
DWIDTH 5 0
BBX 5 14 0 0
BITMAP
F8
F8
38
30
30
30
30
60
60
60
60
C0
F8
F8
ENDCHAR
STARTCHAR 005B
ENCODING 91
SWIDTH 205 0
DWIDTH 4 0
BBX 3 16 1 -2
BITMAP
E0
E0
80
80
80
80
80
80
80
80
80
80
80
80
E0
E0
ENDCHAR
STARTCHAR 005C
ENCODING 92
SWIDTH 257 0
DWIDTH 5 0
BBX 8 14 -1 0
BITMAP
80
40
40
20
20
30
10
10
08
08
04
04
02
03
ENDCHAR
STARTCHAR 005D
ENCODING 93
SWIDTH 205 0
DWIDTH 4 0
BBX 4 16 0 -2
BITMAP
F0
F0
30
30
30
30
30
30
30
30
30
30
30
30
F0
F0
ENDCHAR
STARTCHAR 005E
ENCODING 94
SWIDTH 514 0
DWIDTH 10 0
BBX 10 8 0 6
BITMAP
0C00
1C00
1E00
3200
3300
6100
6180
C0C0
ENDCHAR
STARTCHAR 005F
ENCODING 95
SWIDTH 514 0
DWIDTH 10 0
BBX 10 2 0 -2
BITMAP
FFC0
FFC0
ENDCHAR
STARTCHAR 0060
ENCODING 96
SWIDTH 154 0
DWIDTH 3 0
BBX 4 4 -1 12
BITMAP
C0
60
20
10
ENDCHAR
STARTCHAR 0061
ENCODING 97
SWIDTH 257 0
DWIDTH 5 0
BBX 5 11 0 0
BITMAP
70
D8
D8
D8
38
F8
D8
D8
D8
F8
78
ENDCHAR
STARTCHAR 0062
ENCODING 98
SWIDTH 257 0
DWIDTH 5 0
BBX 5 14 0 0
BITMAP
C0
C0
C0
F8
D8
D8
D8
D8
D8
D8
D8
D8
F8
F8
ENDCHAR
STARTCHAR 0063
ENCODING 99
SWIDTH 257 0
DWIDTH 5 0
BBX 5 11 0 0
BITMAP
70
D8
D8
D8
C0
C0
D8
D8
D8
F8
70
ENDCHAR
STARTCHAR 0064
ENCODING 100
SWIDTH 257 0
DWIDTH 5 0
BBX 5 14 0 0
BITMAP
18
18
18
78
D8
D8
D8
D8
D8
D8
D8
D8
F8
78
ENDCHAR
STARTCHAR 0065
ENCODING 101
SWIDTH 257 0
DWIDTH 5 0
BBX 5 11 0 0
BITMAP
70
D8
D8
D8
F8
F8
D8
D8
D8
F8
70
ENDCHAR
STARTCHAR 0066
ENCODING 102
SWIDTH 154 0
DWIDTH 3 0
BBX 3 14 0 0
BITMAP
60
60
60
E0
60
60
60
60
60
60
60
60
60
60
ENDCHAR
STARTCHAR 0067
ENCODING 103
SWIDTH 257 0
DWIDTH 5 0
BBX 5 14 0 -3
BITMAP
78
D8
D8
D8
D8
D8
D8
D8
F8
F8
18
D8
D8
70
ENDCHAR
STARTCHAR 0068
ENCODING 104
SWIDTH 257 0
DWIDTH 5 0
BBX 5 14 0 0
BITMAP
C0
C0
C0
D8
F8
D8
D8
D8
D8
D8
D8
D8
D8
D8
ENDCHAR
STARTCHAR 0069
ENCODING 105
SWIDTH 154 0
DWIDTH 3 0
BBX 1 14 1 0
BITMAP
80
80
00
80
80
80
80
80
80
80
80
80
80
80
ENDCHAR
STARTCHAR 006A
ENCODING 106
SWIDTH 154 0
DWIDTH 3 0
BBX 2 17 0 -3
BITMAP
C0
C0
00
C0
C0
C0
C0
C0
C0
C0
C0
C0
C0
C0
C0
C0
C0
ENDCHAR
STARTCHAR 006B
ENCODING 107
SWIDTH 257 0
DWIDTH 5 0
BBX 5 14 0 0
BITMAP
C0
C0
C0
D8
D8
D8
D0
F0
F0
D0
D8
D8
D8
D8
ENDCHAR
STARTCHAR 006C
ENCODING 108
SWIDTH 154 0
DWIDTH 3 0
BBX 1 14 1 0
BITMAP
80
80
80
80
80
80
80
80
80
80
80
80
80
80
ENDCHAR
STARTCHAR 006D
ENCODING 109
SWIDTH 411 0
DWIDTH 8 0
BBX 8 11 0 0
BITMAP
DF
FF
DB
DB
DB
DB
DB
DB
DB
DB
DB
ENDCHAR
STARTCHAR 006E
ENCODING 110
SWIDTH 257 0
DWIDTH 5 0
BBX 5 11 0 0
BITMAP
D8
F8
D8
D8
D8
D8
D8
D8
D8
D8
D8
ENDCHAR
STARTCHAR 006F
ENCODING 111
SWIDTH 257 0
DWIDTH 5 0
BBX 5 11 0 0
BITMAP
70
D8
D8
D8
D8
D8
D8
D8
D8
D8
70
ENDCHAR
STARTCHAR 0070
ENCODING 112
SWIDTH 257 0
DWIDTH 5 0
BBX 5 14 0 -3
BITMAP
F8
D8
D8
D8
D8
D8
D8
D8
D8
F8
F8
C0
C0
C0
ENDCHAR
STARTCHAR 0071
ENCODING 113
SWIDTH 257 0
DWIDTH 5 0
BBX 5 14 0 -3
BITMAP
78
D8
D8
D8
D8
D8
D8
D8
D8
F8
78
18
18
18
ENDCHAR
STARTCHAR 0072
ENCODING 114
SWIDTH 257 0
DWIDTH 5 0
BBX 5 11 0 0
BITMAP
D8
F8
D8
D8
D8
D8
C0
C0
C0
C0
C0
ENDCHAR
STARTCHAR 0073
ENCODING 115
SWIDTH 257 0
DWIDTH 5 0
BBX 5 11 0 0
BITMAP
70
D8
D8
F8
60
30
D8
D8
D8
F8
70
ENDCHAR
STARTCHAR 0074
ENCODING 116
SWIDTH 154 0
DWIDTH 3 0
BBX 3 13 0 0
BITMAP
60
60
E0
60
60
60
60
60
60
60
60
60
60
ENDCHAR
STARTCHAR 0075
ENCODING 117
SWIDTH 257 0
DWIDTH 5 0
BBX 5 11 0 0
BITMAP
D8
D8
D8
D8
D8
D8
D8
D8
D8
F8
78
ENDCHAR
STARTCHAR 0076
ENCODING 118
SWIDTH 257 0
DWIDTH 5 0
BBX 5 11 0 0
BITMAP
D8
D8
D8
D8
58
58
70
70
70
70
70
ENDCHAR
STARTCHAR 0077
ENCODING 119
SWIDTH 462 0
DWIDTH 9 0
BBX 9 11 0 0
BITMAP
D980
D900
DF00
DF00
5F00
5700
5700
7700
7600
7600
7600
ENDCHAR
STARTCHAR 0078
ENCODING 120
SWIDTH 257 0
DWIDTH 5 0
BBX 5 11 0 0
BITMAP
D8
D8
50
70
70
70
70
50
50
D8
D8
ENDCHAR
STARTCHAR 0079
ENCODING 121
SWIDTH 257 0
DWIDTH 5 0
BBX 5 14 0 -3
BITMAP
D8
D8
D8
58
58
78
70
70
70
70
30
30
F0
E0
ENDCHAR
STARTCHAR 007A
ENCODING 122
SWIDTH 205 0
DWIDTH 4 0
BBX 4 11 0 0
BITMAP
F0
F0
30
30
60
60
60
40
C0
F0
F0
ENDCHAR
STARTCHAR 007B
ENCODING 123
SWIDTH 308 0
DWIDTH 6 0
BBX 5 16 1 -2
BITMAP
38
38
60
60
60
60
60
C0
C0
60
60
60
60
60
38
38
ENDCHAR
STARTCHAR 007C
ENCODING 124
SWIDTH 205 0
DWIDTH 4 0
BBX 2 14 1 0
BITMAP
C0
C0
C0
C0
C0
C0
C0
C0
C0
C0
C0
C0
C0
C0
ENDCHAR
STARTCHAR 007D
ENCODING 125
SWIDTH 308 0
DWIDTH 6 0
BBX 6 16 0 -2
BITMAP
E0
F0
30
30
30
30
30
1C
1C
30
30
30
30
30
F0
E0
ENDCHAR
STARTCHAR 007E
ENCODING 126
SWIDTH 514 0
DWIDTH 10 0
BBX 9 3 0 4
BITMAP
7880
FF80
4700
ENDCHAR
STARTCHAR 009D
ENCODING 157
SWIDTH 874 0
DWIDTH 17 0
BBX 18 14 0 0
BITMAP
00C700
03EF00
063900
0C6240
0BCC80
105000
084000
084100
042200
431200
821400
863400
FBF800
71C800
ENDCHAR
STARTCHAR 00A0
ENCODING 160
SWIDTH 771 0
DWIDTH 15 0
BBX 0 0 0 0
BITMAP
ENDCHAR
STARTCHAR 00A1
ENCODING 161
SWIDTH 205 0
DWIDTH 4 0
BBX 2 14 1 -2
BITMAP
C0
C0
00
C0
C0
C0
C0
C0
C0
C0
C0
C0
C0
C0
ENDCHAR
STARTCHAR 00A2
ENCODING 162
SWIDTH 308 0
DWIDTH 6 0
BBX 5 14 1 -1
BITMAP
10
10
70
D8
D8
D8
C0
C0
D8
D8
D8
F8
70
80
ENDCHAR
STARTCHAR 00A3
ENCODING 163
SWIDTH 308 0
DWIDTH 6 0
BBX 6 14 0 0
BITMAP
78
7C
6C
EC
60
60
F8
F8
60
60
60
60
FC
7C
ENDCHAR
STARTCHAR 00A4
ENCODING 164
SWIDTH 308 0
DWIDTH 6 0
BBX 6 6 0 4
BITMAP
B4
7C
44
44
7C
B4
ENDCHAR
STARTCHAR 00A5
ENCODING 165
SWIDTH 308 0
DWIDTH 6 0
BBX 6 14 0 0
BITMAP
CC
EC
6C
6C
78
78
FC
FC
7C
7C
30
30
30
30
ENDCHAR
STARTCHAR 00A6
ENCODING 166
SWIDTH 205 0
DWIDTH 4 0
BBX 2 14 1 0
BITMAP
C0
C0
C0
C0
C0
00
00
00
00
C0
C0
C0
C0
C0
ENDCHAR
STARTCHAR 00A7
ENCODING 167
SWIDTH 308 0
DWIDTH 6 0
BBX 6 17 0 -3
BITMAP
38
7C
6C
6C
60
30
58
CC
CC
6C
3C
18
08
4C
4C
78
78
ENDCHAR
STARTCHAR 00A8
ENCODING 168
SWIDTH 154 0
DWIDTH 3 0
BBX 5 2 -1 13
BITMAP
D8
D8
ENDCHAR
STARTCHAR 00A9
ENCODING 169
SWIDTH 822 0
DWIDTH 16 0
BBX 15 14 0 0
BITMAP
07E0
1FF0
3838
73CC
67E6
4C66
CC26
CC16
4C36
6E66
77EC
3BF8
1FF0
07E0
ENDCHAR
STARTCHAR 00AA
ENCODING 170
SWIDTH 154 0
DWIDTH 3 0
BBX 3 7 0 7
BITMAP
E0
A0
60
A0
A0
A0
E0
ENDCHAR
STARTCHAR 00AB
ENCODING 171
SWIDTH 308 0
DWIDTH 6 0
BBX 6 9 0 1
BITMAP
24
24
6C
D8
98
DC
6C
24
24
ENDCHAR
STARTCHAR 00AC
ENCODING 172
SWIDTH 514 0
DWIDTH 10 0
BBX 10 6 0 3
BITMAP
FFC0
FFC0
00C0
00C0
00C0
00C0
ENDCHAR
STARTCHAR 00AE
ENCODING 174
SWIDTH 822 0
DWIDTH 16 0
BBX 15 14 0 0
BITMAP
07E0
1FF0
3838
77CC
67E6
4426
C7E6
C7C6
44C6
6466
700C
3838
1FF0
07E0
ENDCHAR
STARTCHAR 00AF
ENCODING 175
SWIDTH 154 0
DWIDTH 3 0
BBX 5 2 -1 13
BITMAP
F8
F8
ENDCHAR
STARTCHAR 00B0
ENCODING 176
SWIDTH 411 0
DWIDTH 8 0
BBX 6 7 1 7
BITMAP
70
78
CC
84
CC
78
70
ENDCHAR
STARTCHAR 00B1
ENCODING 177
SWIDTH 514 0
DWIDTH 10 0
BBX 10 9 0 1
BITMAP
0C00
0C00
FFC0
FFC0
0C00
0C00
0000
FFC0
FFC0
ENDCHAR
STARTCHAR 00B2
ENCODING 178
SWIDTH 205 0
DWIDTH 4 0
BBX 4 8 0 6
BITMAP
60
F0
F0
20
40
40
F0
F0
ENDCHAR
STARTCHAR 00B3
ENCODING 179
SWIDTH 205 0
DWIDTH 4 0
BBX 4 8 0 6
BITMAP
60
F0
F0
30
20
F0
F0
60
ENDCHAR
STARTCHAR 00B4
ENCODING 180
SWIDTH 154 0
DWIDTH 3 0
BBX 4 4 0 12
BITMAP
30
60
40
80
ENDCHAR
STARTCHAR 00B5
ENCODING 181
SWIDTH 257 0
DWIDTH 5 0
BBX 5 14 0 -3
BITMAP
D8
D8
D8
D8
D8
D8
D8
D8
D8
F8
F8
C0
C0
C0
ENDCHAR
STARTCHAR 00B6
ENCODING 182
SWIDTH 617 0
DWIDTH 12 0
BBX 10 18 1 -4
BITMAP
7FC0
FFC0
F900
F900
F900
F900
7900
0900
0900
0900
0900
0900
0900
0900
0900
0900
0900
0900
ENDCHAR
STARTCHAR 00B8
ENCODING 184
SWIDTH 154 0
DWIDTH 3 0
BBX 4 4 -1 -4
BITMAP
20
10
10
F0
ENDCHAR
STARTCHAR 00B9
ENCODING 185
SWIDTH 205 0
DWIDTH 4 0
BBX 3 8 0 6
BITMAP
60
E0
60
60
60
60
60
60
ENDCHAR
STARTCHAR 00BA
ENCODING 186
SWIDTH 154 0
DWIDTH 3 0
BBX 3 7 0 7
BITMAP
E0
A0
A0
A0
A0
A0
40
ENDCHAR
STARTCHAR 00BB
ENCODING 187
SWIDTH 308 0
DWIDTH 6 0
BBX 6 9 0 1
BITMAP
90
D8
DC
6C
24
6C
D8
98
90
ENDCHAR
STARTCHAR 00BC
ENCODING 188
SWIDTH 514 0
DWIDTH 10 0
BBX 9 14 0 0
BITMAP
2200
E200
6400
6400
6400
6400
6980
6B80
0B80
1580
1780
1780
2180
2180
ENDCHAR
STARTCHAR 00BD
ENCODING 189
SWIDTH 514 0
DWIDTH 10 0
BBX 9 14 0 0
BITMAP
6200
E200
6400
6400
6400
6800
6B80
6A80
7280
1080
1100
2200
2380
2380
ENDCHAR
STARTCHAR 00BE
ENCODING 190
SWIDTH 514 0
DWIDTH 10 0
BBX 9 14 0 0
BITMAP
6100
F200
F200
3200
2400
F580
F580
7A80
0A80
0A80
1780
1780
1080
2080
ENDCHAR
STARTCHAR 00BF
ENCODING 191
SWIDTH 308 0
DWIDTH 6 0
BBX 5 15 1 -3
BITMAP
60
60
00
60
60
60
60
60
C0
D8
D8
D8
D8
F8
70
ENDCHAR
STARTCHAR 00C0
ENCODING 192
SWIDTH 308 0
DWIDTH 6 0
BBX 6 18 0 0
BITMAP
60
30
10
08
38
38
78
78
78
78
6C
6C
7C
7C
4C
CC
CC
CC
ENDCHAR
STARTCHAR 00C1
ENCODING 193
SWIDTH 308 0
DWIDTH 6 0
BBX 6 18 0 0
BITMAP
1C
10
30
00
38
38
78
78
78
78
6C
6C
7C
7C
4C
CC
CC
CC
ENDCHAR
STARTCHAR 00C2
ENCODING 194
SWIDTH 308 0
DWIDTH 6 0
BBX 6 18 0 0
BITMAP
30
28
48
04
38
38
78
78
78
78
6C
6C
7C
7C
4C
CC
CC
CC
ENDCHAR
STARTCHAR 00C3
ENCODING 195
SWIDTH 308 0
DWIDTH 6 0
BBX 6 18 0 0
BITMAP
04
7C
80
00
38
38
78
78
78
78
6C
6C
7C
7C
4C
CC
CC
CC
ENDCHAR
STARTCHAR 00C4
ENCODING 196
SWIDTH 308 0
DWIDTH 6 0
BBX 6 17 0 0
BITMAP
68
68
00
38
38
78
78
78
78
68
6C
7C
7C
4C
CC
CC
CC
ENDCHAR
STARTCHAR 00C5
ENCODING 197
SWIDTH 308 0
DWIDTH 6 0
BBX 6 18 0 0
BITMAP
30
28
28
30
00
38
78
78
78
78
68
6C
7C
7C
4C
CC
CC
CC
ENDCHAR
STARTCHAR 00C6
ENCODING 198
SWIDTH 462 0
DWIDTH 9 0
BBX 9 14 0 0
BITMAP
1F80
1F80
3C00
3C00
3C00
3F80
2F80
6C00
7C00
7C00
6C00
4C00
CF80
CF80
ENDCHAR
STARTCHAR 00C7
ENCODING 199
SWIDTH 308 0
DWIDTH 6 0
BBX 5 18 1 -4
BITMAP
F0
F8
D8
D8
D8
C0
C0
C0
C0
D8
D8
D8
F8
F0
40
30
10
F0
ENDCHAR
STARTCHAR 00C8
ENCODING 200
SWIDTH 257 0
DWIDTH 5 0
BBX 5 18 0 0
BITMAP
E0
20
30
00
78
78
60
60
60
78
78
60
60
60
60
60
78
78
ENDCHAR
STARTCHAR 00C9
ENCODING 201
SWIDTH 257 0
DWIDTH 5 0
BBX 4 18 1 0
BITMAP
30
60
40
80
F0
F0
C0
C0
C0
F0
F0
C0
C0
C0
C0
C0
F0
F0
ENDCHAR
STARTCHAR 00CA
ENCODING 202
SWIDTH 257 0
DWIDTH 5 0
BBX 5 18 0 0
BITMAP
30
50
48
80
78
78
60
60
60
78
78
60
60
60
60
60
78
78
ENDCHAR
STARTCHAR 00CB
ENCODING 203
SWIDTH 257 0
DWIDTH 5 0
BBX 5 17 0 0
BITMAP
D8
D8
00
78
78
60
60
60
78
78
60
60
60
60
60
78
78
ENDCHAR
STARTCHAR 00CC
ENCODING 204
SWIDTH 154 0
DWIDTH 3 0
BBX 4 18 -1 0
BITMAP
C0
20
30
00
30
30
30
30
30
30
30
30
30
30
30
30
30
30
ENDCHAR
STARTCHAR 00CD
ENCODING 205
SWIDTH 154 0
DWIDTH 3 0
BBX 4 18 0 0
BITMAP
30
60
40
80
60
60
60
60
60
60
60
60
60
60
60
60
60
60
ENDCHAR
STARTCHAR 00CE
ENCODING 206
SWIDTH 154 0
DWIDTH 3 0
BBX 5 18 -1 0
BITMAP
30
50
48
80
30
30
30
30
30
30
30
30
30
30
30
30
30
30
ENDCHAR
STARTCHAR 00CF
ENCODING 207
SWIDTH 154 0
DWIDTH 3 0
BBX 5 17 -1 0
BITMAP
D8
D8
00
30
30
30
30
30
30
30
30
30
30
30
30
30
30
ENDCHAR
STARTCHAR 00D0
ENCODING 208
SWIDTH 308 0
DWIDTH 6 0
BBX 6 14 0 0
BITMAP
78
7C
6C
6C
6C
6C
EC
EC
6C
6C
6C
6C
7C
78
ENDCHAR
STARTCHAR 00D1
ENCODING 209
SWIDTH 411 0
DWIDTH 8 0
BBX 6 18 1 0
BITMAP
08
78
80
00
EC
EC
EC
EC
AC
BC
BC
BC
BC
BC
BC
9C
9C
9C
ENDCHAR
STARTCHAR 00D2
ENCODING 210
SWIDTH 308 0
DWIDTH 6 0
BBX 5 18 1 0
BITMAP
C0
60
20
10
F0
F8
D8
D8
D8
D8
D8
D8
D8
D8
D8
D8
F8
F0
ENDCHAR
STARTCHAR 00D3
ENCODING 211
SWIDTH 308 0
DWIDTH 6 0
BBX 5 18 1 0
BITMAP
38
20
60
00
F0
F8
D8
D8
D8
D8
D8
D8
D8
D8
D8
D8
F8
F0
ENDCHAR
STARTCHAR 00D4
ENCODING 212
SWIDTH 308 0
DWIDTH 6 0
BBX 5 18 1 0
BITMAP
60
50
90
08
F0
F8
D8
D8
D8
D8
D8
D8
D8
D8
D8
D8
F8
F0
ENDCHAR
STARTCHAR 00D5
ENCODING 213
SWIDTH 308 0
DWIDTH 6 0
BBX 5 18 1 0
BITMAP
08
F8
90
00
F0
F8
D8
D8
D8
D8
D8
D8
D8
D8
D8
D8
F8
F0
ENDCHAR
STARTCHAR 00D6
ENCODING 214
SWIDTH 308 0
DWIDTH 6 0
BBX 5 17 1 0
BITMAP
D0
D0
00
F0
F8
D8
D8
D8
D8
D8
D8
D8
D8
D8
D8
F8
F0
ENDCHAR
STARTCHAR 00D7
ENCODING 215
SWIDTH 514 0
DWIDTH 10 0
BBX 10 10 0 0
BITMAP
4080
E1C0
7300
3E00
1C00
1E00
3700
6380
C1C0
8080
ENDCHAR
STARTCHAR 00D8
ENCODING 216
SWIDTH 308 0
DWIDTH 6 0
BBX 7 15 0 -1
BITMAP
7E
7C
6C
6C
6C
7C
7C
7C
6C
6C
6C
6C
7C
F8
80
ENDCHAR
STARTCHAR 00D9
ENCODING 217
SWIDTH 308 0
DWIDTH 6 0
BBX 5 18 1 0
BITMAP
C0
60
20
10
D8
D8
D8
D8
D8
D8
D8
D8
D8
D8
D8
D8
F8
F0
ENDCHAR
STARTCHAR 00DA
ENCODING 218
SWIDTH 308 0
DWIDTH 6 0
BBX 5 18 1 0
BITMAP
38
20
60
00
D8
D8
D8
D8
D8
D8
D8
D8
D8
D8
D8
D8
F8
F0
ENDCHAR
STARTCHAR 00DB
ENCODING 219
SWIDTH 308 0
DWIDTH 6 0
BBX 5 18 1 0
BITMAP
60
50
90
08
D8
D8
D8
D8
D8
D8
D8
D8
D8
D8
D8
D8
F8
F0
ENDCHAR
STARTCHAR 00DC
ENCODING 220
SWIDTH 308 0
DWIDTH 6 0
BBX 5 17 1 0
BITMAP
D0
D0
00
D8
D8
D8
D8
D8
D8
D8
D8
D8
D8
D8
D8
F8
F0
ENDCHAR
STARTCHAR 00DD
ENCODING 221
SWIDTH 308 0
DWIDTH 6 0
BBX 6 18 0 0
BITMAP
1C
10
30
00
CC
EC
6C
6C
78
78
38
38
30
30
30
30
30
30
ENDCHAR
STARTCHAR 00DE
ENCODING 222
SWIDTH 308 0
DWIDTH 6 0
BBX 5 14 1 0
BITMAP
C0
C0
F0
F8
D8
D8
D8
D8
D8
F8
F0
C0
C0
C0
ENDCHAR
STARTCHAR 00DF
ENCODING 223
SWIDTH 257 0
DWIDTH 5 0
BBX 5 14 0 0
BITMAP
70
58
D8
D8
D8
D8
D8
D8
D8
D8
D8
D8
D8
D8
ENDCHAR
STARTCHAR 00E0
ENCODING 224
SWIDTH 257 0
DWIDTH 5 0
BBX 5 16 0 0
BITMAP
C0
60
20
10
00
70
D8
D8
D8
38
F8
D8
D8
D8
F8
78
ENDCHAR
STARTCHAR 00E1
ENCODING 225
SWIDTH 257 0
DWIDTH 5 0
BBX 5 16 0 0
BITMAP
18
10
20
20
40
70
D8
D8
D8
38
F8
D8
D8
D8
F8
78
ENDCHAR
STARTCHAR 00E2
ENCODING 226
SWIDTH 257 0
DWIDTH 5 0
BBX 5 16 0 0
BITMAP
30
70
58
C8
00
70
D8
D8
D8
38
F8
D8
D8
D8
F8
78
ENDCHAR
STARTCHAR 00E3
ENCODING 227
SWIDTH 257 0
DWIDTH 5 0
BBX 5 15 0 0
BITMAP
68
B8
00
00
70
D8
D8
D8
38
F8
D8
D8
D8
F8
78
ENDCHAR
STARTCHAR 00E4
ENCODING 228
SWIDTH 257 0
DWIDTH 5 0
BBX 5 15 0 0
BITMAP
D8
D8
00
00
70
D8
D8
D8
38
F8
D8
D8
D8
F8
78
ENDCHAR
STARTCHAR 00E5
ENCODING 229
SWIDTH 257 0
DWIDTH 5 0
BBX 5 16 0 0
BITMAP
30
50
50
30
00
70
D8
D8
D8
38
F8
D8
D8
D8
F8
78
ENDCHAR
STARTCHAR 00E6
ENCODING 230
SWIDTH 411 0
DWIDTH 8 0
BBX 8 11 0 0
BITMAP
7E
DB
DB
DB
3F
7F
DB
DB
DB
FF
6E
ENDCHAR
STARTCHAR 00E7
ENCODING 231
SWIDTH 257 0
DWIDTH 5 0
BBX 5 15 0 -4
BITMAP
70
D8
D8
D8
C0
C0
D8
D8
D8
F8
70
20
10
18
70
ENDCHAR
STARTCHAR 00E8
ENCODING 232
SWIDTH 257 0
DWIDTH 5 0
BBX 5 16 0 0
BITMAP
C0
60
20
10
00
70
D8
D8
D8
F8
F8
D8
D8
D8
F8
70
ENDCHAR
STARTCHAR 00E9
ENCODING 233
SWIDTH 257 0
DWIDTH 5 0
BBX 5 16 0 0
BITMAP
18
10
20
60
00
70
D8
D8
D8
F8
F8
D8
D8
D8
F8
70
ENDCHAR
STARTCHAR 00EA
ENCODING 234
SWIDTH 257 0
DWIDTH 5 0
BBX 5 16 0 0
BITMAP
30
70
58
88
00
70
D8
D8
D8
F8
F8
D8
D8
D8
F8
70
ENDCHAR
STARTCHAR 00EB
ENCODING 235
SWIDTH 257 0
DWIDTH 5 0
BBX 5 15 0 0
BITMAP
D8
D8
00
00
78
D8
D8
D8
F8
F8
D8
D8
D8
F8
70
ENDCHAR
STARTCHAR 00EC
ENCODING 236
SWIDTH 154 0
DWIDTH 3 0
BBX 4 16 -1 0
BITMAP
C0
60
20
10
00
60
60
60
60
60
60
60
60
60
60
60
ENDCHAR
STARTCHAR 00ED
ENCODING 237
SWIDTH 154 0
DWIDTH 3 0
BBX 4 16 0 0
BITMAP
30
60
40
80
00
C0
C0
C0
C0
C0
C0
C0
C0
C0
C0
C0
ENDCHAR
STARTCHAR 00EE
ENCODING 238
SWIDTH 154 0
DWIDTH 3 0
BBX 5 16 -1 0
BITMAP
20
50
50
88
00
60
60
60
60
60
60
60
60
60
60
60
ENDCHAR
STARTCHAR 00EF
ENCODING 239
SWIDTH 154 0
DWIDTH 3 0
BBX 5 15 -1 0
BITMAP
D8
D8
00
00
60
60
60
60
60
60
60
60
60
60
60
ENDCHAR
STARTCHAR 00F0
ENCODING 240
SWIDTH 257 0
DWIDTH 5 0
BBX 5 14 0 0
BITMAP
E0
F0
30
78
D8
D8
D8
D8
D8
D8
D8
D8
D8
70
ENDCHAR
STARTCHAR 00F1
ENCODING 241
SWIDTH 257 0
DWIDTH 5 0
BBX 5 15 0 0
BITMAP
68
B8
00
00
D8
F8
D8
D8
D8
D8
D8
D8
D8
D8
D8
ENDCHAR
STARTCHAR 00F2
ENCODING 242
SWIDTH 257 0
DWIDTH 5 0
BBX 5 16 0 0
BITMAP
C0
60
20
10
00
70
D8
D8
D8
D8
D8
D8
D8
D8
D8
70
ENDCHAR
STARTCHAR 00F3
ENCODING 243
SWIDTH 257 0
DWIDTH 5 0
BBX 5 16 0 0
BITMAP
18
10
20
60
00
70
D8
D8
D8
D8
D8
D8
D8
D8
D8
70
ENDCHAR
STARTCHAR 00F4
ENCODING 244
SWIDTH 257 0
DWIDTH 5 0
BBX 5 16 0 0
BITMAP
30
70
58
88
00
70
D8
D8
D8
D8
D8
D8
D8
D8
D8
70
ENDCHAR
STARTCHAR 00F5
ENCODING 245
SWIDTH 257 0
DWIDTH 5 0
BBX 5 15 0 0
BITMAP
68
B0
00
00
70
D8
D8
D8
D8
D8
D8
D8
D8
D8
70
ENDCHAR
STARTCHAR 00F6
ENCODING 246
SWIDTH 257 0
DWIDTH 5 0
BBX 5 15 0 0
BITMAP
D8
D8
00
00
78
D8
D8
D8
D8
D8
D8
D8
D8
D8
70
ENDCHAR
STARTCHAR 00F7
ENCODING 247
SWIDTH 514 0
DWIDTH 10 0
BBX 10 11 0 0
BITMAP
0C00
1C00
0C00
0000
FFC0
FFC0
0000
0000
0C00
1C00
0C00
ENDCHAR
STARTCHAR 00F8
ENCODING 248
SWIDTH 257 0
DWIDTH 5 0
BBX 5 13 0 -1
BITMAP
08
78
D8
D8
D8
D8
F8
F8
F8
D8
D8
F0
80
ENDCHAR
STARTCHAR 00F9
ENCODING 249
SWIDTH 257 0
DWIDTH 5 0
BBX 5 16 0 0
BITMAP
C0
60
20
10
00
D8
D8
D8
D8
D8
D8
D8
D8
D8
F8
78
ENDCHAR
STARTCHAR 00FA
ENCODING 250
SWIDTH 257 0
DWIDTH 5 0
BBX 5 16 0 0
BITMAP
18
10
20
60
00
D8
D8
D8
D8
D8
D8
D8
D8
D8
F8
78
ENDCHAR
STARTCHAR 00FB
ENCODING 251
SWIDTH 257 0
DWIDTH 5 0
BBX 5 16 0 0
BITMAP
30
70
58
88
00
D8
D8
D8
D8
D8
D8
D8
D8
D8
F8
78
ENDCHAR
STARTCHAR 00FC
ENCODING 252
SWIDTH 257 0
DWIDTH 5 0
BBX 5 15 0 0
BITMAP
D8
D8
00
00
D8
D8
D8
D8
D8
D8
D8
D8
D8
F8
78
ENDCHAR
STARTCHAR 00FD
ENCODING 253
SWIDTH 257 0
DWIDTH 5 0
BBX 5 19 0 -3
BITMAP
18
10
20
60
00
D8
D8
D8
58
58
78
70
70
70
70
30
30
F0
E0
ENDCHAR
STARTCHAR 00FE
ENCODING 254
SWIDTH 257 0
DWIDTH 5 0
BBX 5 17 0 -3
BITMAP
C0
C0
C0
F8
D8
D8
D8
D8
D8
D8
D8
D8
F8
F8
C0
C0
C0
ENDCHAR
STARTCHAR 00FF
ENCODING 255
SWIDTH 257 0
DWIDTH 5 0
BBX 5 18 0 -3
BITMAP
D8
D8
00
00
D8
D8
D8
58
58
58
70
70
70
70
30
30
F0
E0
ENDCHAR
STARTCHAR 0131
ENCODING 305
SWIDTH 154 0
DWIDTH 3 0
BBX 1 11 1 0
BITMAP
80
80
80
80
80
80
80
80
80
80
80
ENDCHAR
STARTCHAR 0141
ENCODING 321
SWIDTH 257 0
DWIDTH 5 0
BBX 5 14 0 0
BITMAP
60
60
60
60
70
70
60
E0
E0
60
60
60
78
78
ENDCHAR
STARTCHAR 0142
ENCODING 322
SWIDTH 154 0
DWIDTH 3 0
BBX 3 14 0 0
BITMAP
C0
C0
C0
C0
E0
E0
C0
C0
C0
C0
C0
C0
C0
C0
ENDCHAR
STARTCHAR 0152
ENCODING 338
SWIDTH 462 0
DWIDTH 9 0
BBX 8 14 1 0
BITMAP
FF
FF
D8
D8
D8
DF
DF
D8
D8
D8
D8
D8
FF
FF
ENDCHAR
STARTCHAR 0153
ENCODING 339
SWIDTH 411 0
DWIDTH 8 0
BBX 8 11 0 0
BITMAP
7E
5B
DB
DB
DF
DF
DB
DB
DB
FF
7E
ENDCHAR
STARTCHAR 0160
ENCODING 352
SWIDTH 308 0
DWIDTH 6 0
BBX 5 18 1 0
BITMAP
98
50
60
00
F0
F8
D8
D8
D8
C0
60
30
F8
D8
D8
D8
F8
F0
ENDCHAR
STARTCHAR 0161
ENCODING 353
SWIDTH 257 0
DWIDTH 5 0
BBX 5 16 0 0
BITMAP
88
58
70
30
00
70
D8
D8
F8
60
30
D8
D8
D8
F8
70
ENDCHAR
STARTCHAR 0178
ENCODING 376
SWIDTH 308 0
DWIDTH 6 0
BBX 6 17 0 0
BITMAP
68
68
00
CC
CC
6C
6C
78
78
38
38
30
30
30
30
30
30
ENDCHAR
STARTCHAR 017D
ENCODING 381
SWIDTH 257 0
DWIDTH 5 0
BBX 5 18 0 0
BITMAP
88
50
70
00
F8
F8
38
30
30
30
30
60
60
60
60
C0
F8
F8
ENDCHAR
STARTCHAR 017E
ENCODING 382
SWIDTH 205 0
DWIDTH 4 0
BBX 5 16 0 0
BITMAP
88
90
70
60
00
F0
F0
30
30
60
60
60
40
C0
F0
F0
ENDCHAR
STARTCHAR 0192
ENCODING 402
SWIDTH 308 0
DWIDTH 6 0
BBX 6 17 0 -3
BITMAP
0C
18
18
18
7C
7C
38
30
30
30
30
30
30
60
60
E0
C0
ENDCHAR
STARTCHAR 02C6
ENCODING 710
SWIDTH 154 0
DWIDTH 3 0
BBX 5 4 -1 12
BITMAP
20
50
50
88
ENDCHAR
STARTCHAR 02C7
ENCODING 711
SWIDTH 154 0
DWIDTH 3 0
BBX 5 4 -1 12
BITMAP
88
50
70
20
ENDCHAR
STARTCHAR 02D8
ENCODING 728
SWIDTH 154 0
DWIDTH 3 0
BBX 5 3 -1 12
BITMAP
88
F8
70
ENDCHAR
STARTCHAR 02D9
ENCODING 729
SWIDTH 154 0
DWIDTH 3 0
BBX 1 2 1 13
BITMAP
80
80
ENDCHAR
STARTCHAR 02DA
ENCODING 730
SWIDTH 154 0
DWIDTH 3 0
BBX 3 3 0 12
BITMAP
E0
A0
E0
ENDCHAR
STARTCHAR 02DB
ENCODING 731
SWIDTH 154 0
DWIDTH 3 0
BBX 4 4 0 -4
BITMAP
60
80
80
F0
ENDCHAR
STARTCHAR 02DC
ENCODING 732
SWIDTH 154 0
DWIDTH 3 0
BBX 5 2 -1 13
BITMAP
68
B0
ENDCHAR
STARTCHAR 02DD
ENCODING 733
SWIDTH 154 0
DWIDTH 3 0
BBX 6 4 -1 12
BITMAP
6C
58
D0
B0
ENDCHAR
STARTCHAR 2013
ENCODING 8211
SWIDTH 514 0
DWIDTH 10 0
BBX 10 2 0 5
BITMAP
FFC0
FFC0
ENDCHAR
STARTCHAR 2014
ENCODING 8212
SWIDTH 977 0
DWIDTH 19 0
BBX 19 2 0 5
BITMAP
FFFFE0
FFFFE0
ENDCHAR
STARTCHAR 2018
ENCODING 8216
SWIDTH 154 0
DWIDTH 3 0
BBX 3 4 0 10
BITMAP
C0
40
40
60
ENDCHAR
STARTCHAR 2019
ENCODING 8217
SWIDTH 154 0
DWIDTH 3 0
BBX 2 4 1 10
BITMAP
C0
C0
80
80
ENDCHAR
STARTCHAR 201A
ENCODING 8218
SWIDTH 154 0
DWIDTH 3 0
BBX 2 4 1 -2
BITMAP
C0
C0
80
80
ENDCHAR
STARTCHAR 201C
ENCODING 8220
SWIDTH 308 0
DWIDTH 6 0
BBX 5 4 0 10
BITMAP
D8
58
68
68
ENDCHAR
STARTCHAR 201D
ENCODING 8221
SWIDTH 308 0
DWIDTH 6 0
BBX 5 4 1 10
BITMAP
D8
D0
90
B0
ENDCHAR
STARTCHAR 201E
ENCODING 8222
SWIDTH 308 0
DWIDTH 6 0
BBX 5 4 1 -2
BITMAP
D8
D0
90
B0
ENDCHAR
STARTCHAR 2020
ENCODING 8224
SWIDTH 308 0
DWIDTH 6 0
BBX 6 16 0 -2
BITMAP
30
30
30
30
FC
FC
30
30
30
30
30
30
30
30
30
30
ENDCHAR
STARTCHAR 2021
ENCODING 8225
SWIDTH 308 0
DWIDTH 6 0
BBX 6 16 0 -2
BITMAP
30
30
30
30
FC
FC
30
30
30
30
FC
FC
30
30
30
30
ENDCHAR
STARTCHAR 2022
ENCODING 8226
SWIDTH 514 0
DWIDTH 10 0
BBX 7 7 1 3
BITMAP
3C
7E
7E
FE
7E
7C
18
ENDCHAR
STARTCHAR 2026
ENCODING 8230
SWIDTH 977 0
DWIDTH 19 0
BBX 15 2 2 0
BITMAP
C186
C186
ENDCHAR
STARTCHAR 2030
ENCODING 8240
SWIDTH 771 0
DWIDTH 15 0
BBX 14 14 1 0
BITMAP
E200
F400
B400
B400
B400
B800
FF38
EFBC
15AC
15AC
15AC
25AC
27BC
2738
ENDCHAR
STARTCHAR 2039
ENCODING 8249
SWIDTH 205 0
DWIDTH 4 0
BBX 3 9 0 1
BITMAP
20
20
60
C0
C0
C0
60
20
20
ENDCHAR
STARTCHAR 203A
ENCODING 8250
SWIDTH 205 0
DWIDTH 4 0
BBX 3 9 0 1
BITMAP
80
C0
E0
60
20
60
C0
80
80
ENDCHAR
STARTCHAR 2044
ENCODING 8260
SWIDTH 154 0
DWIDTH 3 0
BBX 9 14 -3 0
BITMAP
0080
0080
0100
0200
0200
0400
0800
0800
1000
1000
2000
4000
4000
8000
ENDCHAR
STARTCHAR 2122
ENCODING 8482
SWIDTH 977 0
DWIDTH 19 0
BBX 17 8 1 6
BITMAP
FCE180
FCE380
30F380
30F280
30D680
30DC80
30DC80
30CC80
ENDCHAR
STARTCHAR 2212
ENCODING 8722
SWIDTH 514 0
DWIDTH 10 0
BBX 10 2 0 5
BITMAP
FFC0
FFC0
ENDCHAR
STARTCHAR 2219
ENCODING 8729
SWIDTH 154 0
DWIDTH 3 0
BBX 2 2 1 5
BITMAP
C0
C0
ENDCHAR
STARTCHAR F001
ENCODING 61441
SWIDTH 308 0
DWIDTH 6 0
BBX 6 14 0 0
BITMAP
6C
6C
60
EC
6C
6C
6C
6C
6C
6C
6C
6C
6C
6C
ENDCHAR
STARTCHAR F002
ENCODING 61442
SWIDTH 308 0
DWIDTH 6 0
BBX 6 14 0 0
BITMAP
6C
6C
6C
EC
6C
6C
6C
6C
6C
6C
6C
6C
6C
6C
ENDCHAR
ENDFONT
